<svg width="9" height="8" viewBox="0 0 9 8" fill="none" xmlns="http://www.w3.org/2000/svg">
<path d="M2.21369 4.00102L1.64169 3.42902C1.4915 3.27884 1.37237 3.10054 1.29108 2.90431C1.2098 2.70808 1.16797 2.49776 1.16797 2.28536C1.16797 2.07296 1.2098 1.86264 1.29108 1.66641C1.37237 1.47018 1.4915 1.29188 1.64169 1.14169C1.79188 0.991502 1.97018 0.872366 2.16641 0.791085C2.36264 0.709804 2.57296 0.667969 2.78536 0.667969C2.99776 0.667969 3.20808 0.709804 3.40431 0.791085C3.60054 0.872366 3.77884 0.991502 3.92902 1.14169L7.36036 4.57302C7.66368 4.87634 7.83408 5.28773 7.83408 5.71669C7.83408 6.14565 7.66368 6.55704 7.36036 6.86036C7.05704 7.16368 6.64565 7.33408 6.21669 7.33408C5.78773 7.33408 5.37634 7.16368 5.07302 6.86036L3.78636 5.57369C2.84569 4.63369 4.19836 3.36502 5.16769 4.33436L5.83436 5.00102" stroke="#1A1A1A" stroke-width="1.1" stroke-linecap="round" stroke-linejoin="round"/>
</svg>
