<svg width="24" height="24" viewBox="0 0 24 24" fill="none" xmlns="http://www.w3.org/2000/svg">
<path d="M11.9057 14.6241C12.6018 14.6241 13.2695 14.3475 13.7618 13.8552C14.2541 13.363 14.5307 12.6953 14.5307 11.9991C14.5307 11.9222 14.5271 11.846 14.5206 11.7708L11.6774 14.614C11.7526 14.6206 11.8285 14.6241 11.9057 14.6241ZM20.5944 3.87941L19.5932 2.87909C19.558 2.84396 19.5103 2.82422 19.4606 2.82422C19.4109 2.82422 19.3632 2.84396 19.3281 2.87909L16.7659 5.44198C15.3525 4.71964 13.7636 4.35847 11.9994 4.35847C7.49472 4.35847 4.13378 6.70456 1.91659 11.3967C1.82747 11.5855 1.78125 11.7916 1.78125 12.0003C1.78125 12.209 1.82747 12.4151 1.91659 12.6038C2.80253 14.4699 3.86932 15.9656 5.11698 17.0909L2.63753 19.5694C2.60239 19.6046 2.58265 19.6522 2.58265 19.7019C2.58265 19.7517 2.60239 19.7993 2.63753 19.8345L3.63807 20.835C3.67323 20.8702 3.72091 20.8899 3.77061 20.8899C3.82032 20.8899 3.86799 20.8702 3.90315 20.835L20.5944 4.14472C20.6118 4.1273 20.6257 4.10663 20.6351 4.08386C20.6445 4.0611 20.6494 4.0367 20.6494 4.01206C20.6494 3.98742 20.6445 3.96302 20.6351 3.94026C20.6257 3.9175 20.6118 3.89682 20.5944 3.87941ZM7.78065 11.9991C7.78059 11.2866 7.96507 10.5863 8.31612 9.96625C8.66718 9.34626 9.17284 8.82776 9.78384 8.46127C10.3948 8.09478 11.0904 7.8928 11.8026 7.87501C12.5149 7.85721 13.2196 8.0242 13.8482 8.35972L12.7086 9.49925C12.2491 9.3521 11.7578 9.33438 11.2889 9.44803C10.8199 9.56168 10.3913 9.80231 10.0501 10.1435C9.70887 10.4847 9.46824 10.9133 9.35459 11.3823C9.24094 11.8513 9.25866 12.3425 9.40581 12.8021L8.26628 13.9416C7.94651 13.3441 7.77967 12.6768 7.78065 11.9991Z" fill="#EDEEEF"/>
<path d="M22.083 11.3949C21.258 9.65742 20.2761 8.24063 19.1372 7.14453L15.7589 10.523C16.0437 11.2675 16.1068 12.0784 15.9406 12.8579C15.7745 13.6374 15.3862 14.3521 14.8226 14.9157C14.259 15.4793 13.5443 15.8676 12.7648 16.0338C11.9853 16.1999 11.1743 16.1368 10.4299 15.852L7.56445 18.7175C8.89383 19.3327 10.3724 19.6402 12.0002 19.6402C16.5049 19.6402 19.8659 17.2941 22.083 12.602C22.1722 12.4132 22.2184 12.2071 22.2184 11.9984C22.2184 11.7897 22.1722 11.5836 22.083 11.3949Z" fill="#EDEEEF"/>
</svg>
