<svg width="48" height="51" viewBox="0 0 48 51" fill="none" xmlns="http://www.w3.org/2000/svg">
<path d="M45.6564 41.225C44.4774 38.4323 42.7665 35.8956 40.6189 33.7562C38.4779 31.6106 35.9416 29.9 33.1502 28.7188C33.1252 28.7062 33.1002 28.7 33.0752 28.6875C36.9689 25.875 39.5002 21.2938 39.5002 16.125C39.5002 7.5625 32.5627 0.625 24.0002 0.625C15.4377 0.625 8.50016 7.5625 8.50016 16.125C8.50016 21.2938 11.0314 25.875 14.9252 28.6937C14.9002 28.7062 14.8752 28.7125 14.8502 28.725C12.0502 29.9062 9.53766 31.6 7.38141 33.7625C5.2358 35.9035 3.52514 38.4398 2.34391 41.2313C1.18342 43.9641 0.557543 46.894 0.500156 49.8625C0.498488 49.9292 0.510188 49.9956 0.534568 50.0577C0.558947 50.1198 0.595512 50.1764 0.642109 50.2242C0.688705 50.2719 0.74439 50.3099 0.805882 50.3358C0.867375 50.3617 0.93343 50.375 1.00016 50.375H4.75016C5.02516 50.375 5.24391 50.1562 5.25016 49.8875C5.37516 45.0625 7.31266 40.5438 10.7377 37.1188C14.2814 33.575 18.9877 31.625 24.0002 31.625C29.0127 31.625 33.7189 33.575 37.2627 37.1188C40.6877 40.5438 42.6252 45.0625 42.7502 49.8875C42.7564 50.1625 42.9752 50.375 43.2502 50.375H47.0002C47.0669 50.375 47.1329 50.3617 47.1944 50.3358C47.2559 50.3099 47.3116 50.2719 47.3582 50.2242C47.4048 50.1764 47.4414 50.1198 47.4657 50.0577C47.4901 49.9956 47.5018 49.9292 47.5002 49.8625C47.4377 46.875 46.8189 43.9688 45.6564 41.225ZM24.0002 26.875C21.1314 26.875 18.4314 25.7563 16.4002 23.725C14.3689 21.6938 13.2502 18.9937 13.2502 16.125C13.2502 13.2563 14.3689 10.5562 16.4002 8.525C18.4314 6.49375 21.1314 5.375 24.0002 5.375C26.8689 5.375 29.5689 6.49375 31.6002 8.525C33.6314 10.5562 34.7502 13.2563 34.7502 16.125C34.7502 18.9937 33.6314 21.6938 31.6002 23.725C29.5689 25.7563 26.8689 26.875 24.0002 26.875Z" fill="#0D0F21"/>
</svg>
