<?xml version="1.0" encoding="UTF-8"?>
<!DOCTYPE svg PUBLIC "-//W3C//DTD SVG 1.1//EN" "http://www.w3.org/Graphics/SVG/1.1/DTD/svg11.dtd">
<!-- Creator: CorelDRAW 2021 (64-Bit) -->
<svg xmlns="http://www.w3.org/2000/svg" xml:space="preserve" width="297mm" height="65mm" version="1.1" style="shape-rendering:geometricPrecision; text-rendering:geometricPrecision; image-rendering:optimizeQuality; fill-rule:evenodd; clip-rule:evenodd"
viewBox="0 0 29700 6500"
 xmlns:xlink="http://www.w3.org/1999/xlink"
 xmlns:xodm="http://www.corel.com/coreldraw/odm/2003">
 <defs>
  <style type="text/css">
   <![CDATA[
    .fil0 {fill:black;fill-rule:nonzero}
    .fil2 {fill:#0D0F21;fill-rule:nonzero}
    .fil1 {fill:#5BE2C5;fill-rule:nonzero}
   ]]>
  </style>
 </defs>
 <g id="Capa_x0020_1">
  <metadata id="CorelCorpID_0Corel-Layer"/>
  <path class="fil0" d="M12559 6059.28c-80.9,0 -148.29,-33.71 -202.26,-101.15l-1793.33 -2285.5 411.24 -418.02 1827.08 2339.46c40.44,58.45 60.68,119.1 60.68,182.06 0,89.88 -33.72,159.54 -101.15,208.97 -62.92,49.45 -130.34,74.18 -202.26,74.18zm-20.22 -4739.6c71.92,0 130.35,29.23 175.3,87.65 49.42,58.44 74.15,119.11 74.15,182.03 0,62.93 -26.97,121.37 -80.89,175.29l-2979.94 2818.15 -47.19 -627.01 2642.85 -2534.97c67.39,-67.42 139.3,-101.14 215.72,-101.14zm-3033.86 4726.1c-85.42,0 -152.82,-26.97 -202.26,-80.89 -49.43,-53.95 -74.15,-119.14 -74.15,-195.52l0 -4166.52c0,-80.91 26.96,-146.07 80.89,-195.52 53.93,-53.93 121.37,-80.9 202.26,-80.9 85.41,0 152.82,26.97 202.27,80.9 49.42,49.45 74.15,114.61 74.15,195.52l0 4166.52c0,76.38 -26.98,141.57 -80.9,195.52 -49.46,53.92 -116.85,80.89 -202.26,80.89zm4356.17 0c-76.38,0 -141.57,-26.97 -195.51,-80.89 -49.42,-53.95 -74.15,-119.14 -74.15,-195.52l0 -2939.5c0,-76.4 24.73,-139.32 74.15,-188.76 53.94,-53.94 119.13,-80.91 195.51,-80.91 80.9,0 146.1,26.97 195.52,80.91 49.46,49.44 74.17,112.36 74.17,188.76l0 889.94 -80.89 -141.58c26.96,-139.34 74.15,-274.17 141.58,-404.53 71.91,-134.83 161.79,-253.91 269.66,-357.31 107.87,-107.85 231.47,-191.02 370.81,-249.44 139.34,-62.93 292.14,-94.39 458.46,-94.39 98.87,0 188.76,24.73 269.66,74.16 85.4,44.94 128.11,110.11 128.11,195.52 0,94.37 -24.72,164.05 -74.18,208.98 -49.42,44.95 -105.62,67.44 -168.55,67.44 -58.4,0 -114.61,-11.22 -168.54,-33.72 -53.93,-26.96 -121.33,-40.46 -202.26,-40.46 -112.35,0 -224.73,31.47 -337.1,94.39 -107.86,58.45 -208.98,143.82 -303.37,256.2 -89.89,112.38 -164.07,240.45 -222.48,384.28 -53.93,139.34 -80.91,289.9 -80.91,451.74l0 1638.28c0,76.38 -26.96,141.57 -80.89,195.52 -49.46,53.92 -112.38,80.89 -188.8,80.89zm3896.22 67.44c-359.58,0 -674.18,-76.42 -943.88,-229.24 -269.67,-152.84 -480.92,-361.82 -633.76,-627 -148.29,-269.7 -222.48,-579.82 -222.48,-930.38 0,-391.06 76.42,-723.64 229.24,-997.81 157.31,-278.69 359.58,-489.94 606.79,-633.75 251.68,-148.32 516.86,-222.48 795.55,-222.48 206.73,0 406.76,38.2 600.04,114.61 193.24,76.41 364.05,188.76 512.38,337.09 148.3,143.82 267.43,319.12 357.31,525.89 89.89,202.23 137.07,429.22 141.58,680.94 0,71.91 -26.97,132.59 -80.89,182.01 -53.94,49.46 -116.86,74.19 -188.8,74.19l-2663.07 0 -121.33 -465.22 2595.63 0 -107.86 94.4 0 -148.33c-17.98,-184.29 -80.9,-341.6 -188.77,-471.96 -103.38,-134.83 -231.49,-238.18 -384.3,-310.13 -148.33,-71.89 -305.62,-107.85 -471.92,-107.85 -134.83,0 -269.7,24.73 -404.53,74.17 -130.35,44.95 -249.44,121.33 -357.31,229.24 -103.39,103.34 -188.8,238.18 -256.19,404.49 -62.93,166.31 -94.4,366.33 -94.4,600.04 0,260.71 51.69,489.89 155.07,687.68 107.87,197.75 256.2,355.07 444.96,471.92 188.77,112.38 409,168.55 660.72,168.55 157.29,0 294.39,-20.22 411.25,-60.68 116.85,-40.44 218,-89.88 303.37,-148.3 85.41,-62.95 157.33,-125.87 215.76,-188.79 58.41,-40.44 114.63,-60.69 168.55,-60.69 67.41,0 121.33,22.5 161.8,67.43 44.95,44.95 67.43,98.88 67.43,161.8 0,76.42 -35.96,143.86 -107.9,202.27 -125.84,139.34 -296.62,262.94 -512.36,370.8 -215.76,103.4 -444.98,155.09 -687.68,155.09zm5125.5 -5056.47c76.42,0 139.34,26.97 188.77,80.91 53.93,49.44 80.89,112.36 80.89,188.77l0 4442.94c0,76.38 -26.96,141.57 -80.89,195.52 -49.43,53.92 -112.35,80.89 -188.77,80.89 -80.89,0 -146.09,-26.97 -195.52,-80.89 -49.44,-53.95 -74.17,-119.14 -74.17,-195.52l0 -640.5 128.11 -47.18c0,107.86 -33.72,222.48 -101.15,343.83 -67.4,116.86 -159.56,227 -276.4,330.35 -116.86,103.38 -256.2,188.8 -418,256.2 -157.32,67.43 -328.11,101.15 -512.39,101.15 -301.14,0 -575.31,-78.67 -822.52,-235.98 -242.69,-157.33 -435.97,-373.05 -579.78,-647.22 -139.35,-274.17 -209.02,-586.57 -209.02,-937.14 0,-355.06 69.67,-669.7 209.02,-943.88 143.81,-274.17 337.09,-487.66 579.78,-640.46 242.7,-157.33 512.4,-235.98 809.05,-235.98 188.77,0 366.3,31.46 532.61,94.39 166.31,62.92 310.12,148.33 431.45,256.2 125.88,107.87 224.76,226.95 296.67,357.31 71.91,130.35 107.86,260.71 107.86,391.02l-175.29 -40.43 0 -2204.62c0,-76.41 24.73,-139.33 74.17,-188.77 49.43,-53.94 114.63,-80.91 195.52,-80.91zm-1388.84 4557.54c224.72,0 422.5,-56.17 593.29,-168.55 175.29,-116.85 310.12,-274.17 404.53,-471.92 98.87,-202.26 148.29,-429.25 148.29,-680.94 0,-256.19 -49.42,-483.17 -148.29,-680.94 -94.41,-197.75 -229.24,-352.82 -404.53,-465.2 -170.79,-116.85 -368.57,-175.3 -593.29,-175.3 -220.24,0 -417.99,58.45 -593.28,175.3 -170.79,112.38 -305.66,267.45 -404.53,465.2 -98.88,197.77 -148.34,424.75 -148.34,680.94 0,247.21 49.46,471.92 148.34,674.2 98.87,197.75 233.74,355.06 404.53,471.92 175.29,116.88 373.04,175.29 593.28,175.29zm3177.2 155.08c0,76.38 -26.98,141.57 -80.91,195.52 -49.45,53.92 -112.37,80.89 -188.79,80.89 -80.91,0 -146.06,-26.97 -195.52,-80.89 -49.42,-53.95 -74.15,-119.14 -74.15,-195.52l0 -2993.44c0,-76.39 24.73,-139.32 74.15,-188.76 53.94,-53.94 119.13,-80.91 195.52,-80.91 76.42,0 139.34,26.97 188.79,80.91 53.93,49.44 80.91,112.37 80.91,188.76l0 2993.44zm-269.7 -3714.81c-112.34,0 -195.52,-22.48 -249.45,-67.43 -53.93,-44.94 -80.9,-114.61 -80.9,-208.99l0 -94.39c0,-94.39 29.21,-164.05 87.65,-209 58.45,-44.94 141.58,-67.42 249.44,-67.42 107.87,0 188.77,22.48 242.74,67.42 53.92,44.95 80.89,114.61 80.89,209l0 94.39c0,94.38 -29.24,164.05 -87.65,208.99 -53.93,44.95 -134.83,67.43 -242.72,67.43zm4110.57 471.94c76.42,0 139.34,26.96 188.8,80.9 53.94,49.43 80.9,112.36 80.9,188.78l0 2973.19c0,76.38 -26.96,141.57 -80.9,195.52 -49.46,53.92 -112.38,80.89 -188.8,80.89 -80.89,0 -146.06,-26.97 -195.52,-80.89 -49.41,-53.95 -74.14,-119.14 -74.14,-195.52l0 -640.5 128.08 -13.48c0,98.89 -33.68,206.75 -101.11,323.61 -67.44,116.88 -159.56,226.99 -276.42,330.37 -116.88,98.88 -256.18,182.01 -418.02,249.44 -157.28,62.92 -328.11,94.41 -512.36,94.41 -305.64,0 -579.81,-78.67 -822.51,-235.98 -242.73,-161.8 -436.01,-379.81 -579.82,-653.98 -139.35,-274.17 -209.01,-586.53 -209.01,-937.12 0,-355.08 69.66,-667.44 209.01,-937.14 143.81,-274.17 337.09,-487.66 579.82,-640.46 242.7,-157.33 512.36,-235.98 809.01,-235.98 193.28,0 373.05,31.46 539.36,94.39 166.31,62.92 310.13,148.33 431.49,256.2 125.85,107.87 222.48,226.95 289.92,357.31 71.9,130.35 107.85,260.71 107.85,391.02l-175.29 -40.43 0 -734.87c0,-76.42 24.73,-139.35 74.14,-188.78 49.46,-53.94 114.63,-80.9 195.52,-80.9zm-1388.84 3087.79c224.75,0 422.5,-58.41 593.29,-175.29 175.3,-116.86 310.16,-274.17 404.53,-471.92 98.88,-202.28 148.33,-429.23 148.33,-680.94 0,-247.21 -49.45,-469.69 -148.33,-667.44 -94.37,-202.26 -229.23,-359.58 -404.53,-471.96 -170.79,-116.85 -368.54,-175.3 -593.29,-175.3 -220.23,0 -417.98,56.2 -593.28,168.58 -170.79,112.35 -305.62,267.43 -404.49,465.18 -98.92,197.75 -148.34,424.74 -148.34,680.94 0,251.71 47.19,478.66 141.58,680.94 98.88,197.75 233.71,355.06 404.53,471.92 175.26,116.88 375.28,175.29 600,175.29z"/>
  <path class="fil1" d="M7196.59 219.26c213.65,0 386.88,173.21 386.88,386.89l0 3868.99c-0.03,961.52 -779.47,1740.99 -1741.04,1741.03l-679.89 0 -1096.25 -1257.48 2240.12 -2393.55 47.45 1432.45c3.98,120.13 104.58,214.3 224.68,210.32 120.13,-3.98 214.29,-104.6 210.31,-224.71l-64.79 -1957.6c-3.97,-120.12 -104.58,-214.28 -224.71,-210.3l-1957.61 64.84c-120.09,3.98 -214.28,104.58 -210.31,224.7 4.01,120.12 104.59,214.28 224.72,210.32l1432.48 -47.45 -2209.85 2361.2 -1042.65 -1195.96 -9.14 -10.23c-191.21,-207.48 -519.57,-207.48 -710.79,0l-9.14 10.23 -1527.22 1751.72c-96.83,-216.7 -150.69,-456.82 -150.69,-709.53l0 -3868.99c0.01,-213.68 173.22,-386.89 386.89,-386.89l6480.55 0z"/>
  <path class="fil2" d="M2192.26 3865.57c77.21,-90.09 216.56,-90.05 293.76,0l2008.62 2343.48 -2445.66 0c-535.02,0 -1013.58,-241.42 -1332.95,-621.15l1476.23 -1722.33z"/>
 </g>
</svg>
